<?xml version="1.0" encoding="utf-8"?>
<!-- Generator: Adobe Illustrator 26.0.1, SVG Export Plug-In . SVG Version: 6.00 Build 0)  -->
<svg version="1.1" id="Layer_1" xmlns="http://www.w3.org/2000/svg" xmlns:xlink="http://www.w3.org/1999/xlink" x="0px" y="0px"
	 viewBox="0 0 48 48" style="enable-background:new 0 0 48 48;" xml:space="preserve">
<style type="text/css">
	.st0{fill:#2C496D;}
</style>
<path class="st0" d="M9,44c-0.8,0-1.5-0.3-2.1-0.9C6.3,42.5,6,41.8,6,41V14.5c0-0.8,0.3-1.5,0.9-2.1c0.6-0.6,1.3-0.9,2.1-0.9h5.5
	c0-2.6,0.9-4.9,2.6-6.7s4-2.8,6.6-2.8s4.9,0.9,6.9,2.8s2.9,4.1,2.9,6.7H39c0.8,0,1.5,0.3,2.1,0.9c0.6,0.6,0.9,1.3,0.9,2.1V41
	c0,0.8-0.3,1.5-0.9,2.1C40.5,43.7,39.8,44,39,44H9z M24,26.5c2.6,0,4.9-1,6.9-2.9s2.9-4.2,2.9-6.9h-3c0,1.8-0.7,3.4-2,4.8
	s-2.9,2-4.8,2s-3.4-0.7-4.8-2s-2-2.9-2-4.8h-3c0,2.6,1,4.9,2.9,6.9S21.4,26.5,24,26.5z M17.5,11.5h13c0-1.8-0.6-3.4-1.9-4.6
	S25.8,5,24,5s-3.4,0.6-4.6,1.9S17.5,9.7,17.5,11.5z"/>
</svg>
