<?xml version="1.0" encoding="utf-8"?>
<!-- Generator: Adobe Illustrator 26.0.1, SVG Export Plug-In . SVG Version: 6.00 Build 0)  -->
<svg version="1.1" id="Layer_1" xmlns="http://www.w3.org/2000/svg" xmlns:xlink="http://www.w3.org/1999/xlink" x="0px" y="0px"
	 viewBox="0 0 121.2 122.9" style="enable-background:new 0 0 121.2 122.9;" xml:space="preserve">
<style type="text/css">
	.st0{fill-rule:evenodd;clip-rule:evenodd;fill:#FFFFFF;}
</style>
<g>
	<path class="st0" d="M10.1,96.6C6.4,105.5,1.4,114,0,122.9l5.1-0.4C13.2,98.9,20.5,83,36.4,63.2c11.9-14.8,24.8-26.6,41.3-36
		c8.8-5,20.1-10.5,30.2-11.9c2.8-0.4,5.6-0.5,8.5-0.2C84.9,22.3,60.1,39,40.2,63.9C32.1,74.1,25,85.4,18.6,97.3l11.9,2.2l-5-2.5
		l17.8-2.8c-6.6-2.3-13.1-1.6-15.2-4.1c18.3-0.8,33.3-4.8,43.9-12.4c-3.9-0.6-8.5-1-10.8-2.2c17.7-6,27.9-16.7,40.9-26.3
		c-16.9,3.5-32.5,3-37-0.2c29.8,2.2,49-6,55.6-26.8c0.6-2.2,0.7-4.5,0.4-6.8C118.7,0.6,92.5-4.4,83.9,7.8c-1.7,2.4-4.1,4.7-6.1,7.5
		L86,0C64.1,7.4,62.3,15.5,51,40.1c0.9-7.5,3-14.2,5.7-20.6C29.3,30,20.2,56.6,18.7,79.2c-0.8-7.9,0.7-17.8,3.5-28.9
		c-8,8-13.4,17.4-11.5,30.8l-3.7-1.6L9,86.6L3.6,84L10.1,96.6L10.1,96.6z"/>
</g>
</svg>
