<?xml version="1.0" encoding="utf-8"?>
<!-- Generator: Adobe Illustrator 26.0.1, SVG Export Plug-In . SVG Version: 6.00 Build 0)  -->
<svg version="1.1" id="Layer_1" xmlns="http://www.w3.org/2000/svg" xmlns:xlink="http://www.w3.org/1999/xlink" x="0px" y="0px"
	 viewBox="0 0 310.2 35.5" style="enable-background:new 0 0 310.2 35.5;" xml:space="preserve">
<style type="text/css">
	.st0{fill:#E5E5E5;}
	.st1{font-family:'Cormorant-Bold';}
	.st2{font-size:37.35px;}
	.st3{fill-rule:evenodd;clip-rule:evenodd;fill:#E5E5E5;}
</style>
<text transform="matrix(1 0 0 1 67.49 35.02)" class="st0 st1 st2">Hustlers</text>
<text transform="matrix(1 0 0 1 199.63 35.02)" class="st0 st1 st2">H</text>
<text transform="matrix(1 0 0 1 228.17 35.02)" class="st0 st1 st2">e</text>
<text transform="matrix(1 0 0 1 243.71 35.02)" class="st0 st1 st2">a</text>
<text transform="matrix(1 0 0 1 258.98 35.02)" class="st0 st1 st2">ven</text>
<rect x="8.1" y="19" class="st0" width="3.4" height="16"/>
<polygon class="st0" points="19.3,22.6 8.3,28 9.8,31.1 20.9,25.5 "/>
<rect x="47.2" y="19" class="st0" width="3.4" height="16"/>
<polygon class="st0" points="39.5,22.5 50,27.7 48.5,30.7 37.9,25.4 "/>
<path class="st3" d="M58.9,0.1c0.7,1.9-1.6,5-5.3,6.7c1.4,0,2.7-0.4,3.8-1.2c-0.1,2.4-2,4-6.3,4.5c1.1,0.3,2.3,0.3,3.3,0
	c-1.3,4.3-9.4,1.4-11.9,4.6L31.8,33.3L29.9,30L42.5,8.8c0.7-1.1,1.7-2,2.9-2.5c0.6-0.2,1.2-0.4,1.8-0.6l0.3-0.1
	c3.8-0.8,7.4-2.4,10.4-4.7"/>
<path class="st3" d="M31,35h-3.3L16.5,14.7C14.3,11,6,14.3,4.6,9.9C5.7,10.3,6.9,10.3,8,10C3.7,9.4,1.8,7.9,1.7,5.4
	c1.1,0.8,2.4,1.2,3.8,1.2C1.7,5-0.6,1.9,0.1,0c1.4,1.2,3,2.3,4.7,3.1l0,0c2,1,4.1,1.7,6.2,2.2c0.5,0.1,1.1,0.3,1.6,0.5
	s1,0.4,1.4,0.7c0.1,0.1,0.2,0.1,0.3,0.2c0.9,0.5,1.6,1.3,2.1,2.2L31,35z"/>
</svg>
