<svg id="Layer_1" data-name="Layer 1" xmlns="http://www.w3.org/2000/svg" viewBox="0 0 310.22 35.52"><defs><style>.cls-1{font-size:37.35px;font-family:Cormorant-Bold, Cormorant;font-weight:700;}.cls-1,.cls-4,.cls-5{fill:#2c496d;}.cls-2{letter-spacing:0em;}.cls-3{letter-spacing:-0.01em;}.cls-5{fill-rule:evenodd;}</style></defs><text class="cls-1" transform="translate(67.49 35.02)">Hustlers</text><text class="cls-1" transform="translate(199.63 35.02)">H<tspan class="cls-2" x="28.54" y="0">e</tspan><tspan class="cls-3" x="44.08" y="0">a</tspan><tspan x="59.35" y="0">ven</tspan></text><rect class="cls-4" x="8.12" y="19" width="3.37" height="16"/><polygon class="cls-4" points="19.29 22.56 8.32 28.05 9.83 31.06 20.91 25.52 19.29 22.56"/><rect class="cls-4" x="47.25" y="19" width="3.37" height="16"/><polygon class="cls-4" points="39.54 22.47 49.96 27.69 48.45 30.7 37.89 25.36 39.54 22.47"/><path class="cls-5" d="M58.9.06c.73,1.92-1.58,5-5.33,6.65a6.48,6.48,0,0,0,3.78-1.2c-.09,2.45-2,4-6.29,4.53A5.54,5.54,0,0,0,54.4,10c-1.27,4.26-9.42,1.44-11.89,4.64L31.82,33.27,29.94,30,42.46,8.76a6.16,6.16,0,0,1,2.9-2.51,16.19,16.19,0,0,1,1.78-.6l.33-.09A26.2,26.2,0,0,0,57.92.83"/><path class="cls-5" d="M31,35H27.67L16.46,14.74C14.31,11,6,14.31,4.63,9.91A5.54,5.54,0,0,0,8,10C3.7,9.4,1.78,7.89,1.69,5.45A6.41,6.41,0,0,0,5.46,6.64C1.72,5-.59,1.92.13,0A22.88,22.88,0,0,0,4.8,3.11h0A26.62,26.62,0,0,0,11,5.29a13,13,0,0,1,1.62.47,10.28,10.28,0,0,1,1.44.65,2.21,2.21,0,0,1,.34.18,5.66,5.66,0,0,1,2.1,2.16Z"/></svg>