<?xml version="1.0" encoding="utf-8"?>
<!-- Generator: Adobe Illustrator 26.0.1, SVG Export Plug-In . SVG Version: 6.00 Build 0)  -->
<svg version="1.1"
	 id="Layer_1" shape-rendering="geometricPrecision" image-rendering="optimizeQuality" text-rendering="geometricPrecision"
	 xmlns="http://www.w3.org/2000/svg" xmlns:xlink="http://www.w3.org/1999/xlink" x="0px" y="0px" viewBox="0 0 512 273"
	 style="enable-background:new 0 0 512 273;" xml:space="preserve">
<style type="text/css">
	.st0{fill:#FFFFFF;}
</style>
<path class="st0" d="M404.5,17.8l26.9,62.9l68.5,6.1c3.5,0.4,6.6,2.2,8.7,4.7c2.1,2.6,3.3,5.9,3.1,9.4l-0.1,0.8
	c-0.2,1.6-0.7,3.1-1.4,4.5l-0.3,0.6c-0.6,1-1.3,2-2.1,2.8l-52.2,45.7l15.2,66.7c0.8,3.6,0.1,7.3-1.7,10.2c-1.8,2.9-4.8,5.1-8.4,6
	c-1.8,0.4-3.6,0.4-5.4,0.1c-1.7-0.3-3.3-0.9-4.7-1.8l-58.5-35l-27.3,16.3l-3.6-15.6l27-16.1c2.4-1.5,5.4-1.5,7.9,0l59,35.3l-15.3-67
	c-0.6-2.7,0.2-5.5,2.4-7.5l51.8-45.2l-68-6.1c-3-0.1-5.6-1.9-6.8-4.6l-27-63.2l-17.9,42l-16-1.4L379.8,18c1.4-3.4,4.2-5.9,7.4-7.2
	c3.2-1.3,6.9-1.4,10.3,0.1l0.6,0.3c1.4,0.7,2.6,1.6,3.7,2.6C402.9,14.7,403.8,16.1,404.5,17.8L404.5,17.8z M262.9,4.6l36.6,85.7
	l92.8,8.3c4.1,0.3,7.1,4,6.8,8.1c-0.2,2-1.1,3.7-2.5,5L326.4,173l20.8,90.9c0.9,4-1.6,8-5.6,8.9c-2,0.5-4.1,0-5.7-1L256,224.1
	l-80,47.8c-3.5,2.1-8.1,1-10.2-2.6c-1-1.6-1.3-3.6-0.9-5.5l0,0l20.8-90.9l-70.2-61.3c-3.1-2.7-3.4-7.4-0.7-10.5l0,0
	c1.3-1.5,3.2-2.4,5.2-2.5l92.6-8.3l36.6-85.7c1.6-3.8,6-5.6,9.8-3.9C260.8,1.4,262.2,2.9,262.9,4.6L262.9,4.6z M119.9,27.6l-27,63.2
	c-1.2,2.7-3.8,4.6-6.8,4.6l-68,6.1l51.8,45.2c2.1,1.9,3,4.7,2.4,7.5l-15.3,67l59-35.3c2.5-1.5,5.5-1.4,7.9,0l27,16.2l-3.6,15.6
	l-27.4-16.2l-58.5,35c-1.4,0.9-3,1.5-4.7,1.8s-3.6,0.3-5.3-0.1c-3.6-0.8-6.6-3.1-8.4-6c-1.8-2.9-2.6-6.6-1.7-10.2l15.2-66.7
	L4.1,109.6c-0.8-0.8-1.6-1.8-2.1-2.8l-0.3-0.6c-0.7-1.4-1.2-2.9-1.4-4.5l-0.1-0.8c-0.2-3.6,1-6.9,3.1-9.5c2.1-2.5,5.2-4.3,8.7-4.7
	l68.5-6.1l26.9-62.9c0.7-1.6,1.7-3.1,2.9-4.3c1-1,2.3-1.9,3.7-2.6l0.6-0.3c3.4-1.5,7.1-1.4,10.3-0.1s5.9,3.8,7.4,7.2L153.8,68
	l-16,1.4L119.9,27.6L119.9,27.6z"/>
</svg>
