<?xml version="1.0" encoding="utf-8"?>
<!-- Generator: Adobe Illustrator 26.0.1, SVG Export Plug-In . SVG Version: 6.00 Build 0)  -->
<svg version="1.1" id="Layer_1" xmlns="http://www.w3.org/2000/svg" xmlns:xlink="http://www.w3.org/1999/xlink" x="0px" y="0px"
	 viewBox="0 0 122.9 122.5" style="enable-background:new 0 0 122.9 122.5;" xml:space="preserve">
<style type="text/css">
	.st0{fill:#FFFFFF;}
</style>
<g>
	<path class="st0" d="M45.8,0c12.6,0,24.1,5.1,32.4,13.4c5.3,5.3,9.3,11.9,11.5,19.3c7.6,2.2,14.4,6.2,19.8,11.7
		c8.3,8.3,13.4,19.7,13.4,32.4s-5.1,24.1-13.4,32.4s-19.7,13.4-32.4,13.4s-24.1-5.1-32.4-13.4c-5.3-5.3-9.3-11.9-11.5-19.3
		c-7.6-2.2-14.4-6.2-19.8-11.7C5.1,69.8,0,58.4,0,45.8c0-12.6,5.1-24.1,13.4-32.4S33.1,0,45.8,0L45.8,0z M91.4,42
		c0.1,1,0.1,2.1,0.2,3.1v0v0.1v0v0v0v0v0.1v0v0v0v0v0.1v0v0v0v0v0.1c0,12.6-5.1,24.1-13.4,32.4S58.4,91.5,45.8,91.5h0h0h0h0l0,0h0h0
		h0h0h0h0h0h0h0h0c-0.9,0-1.9-0.1-2.8-0.1c1.9,4.5,4.7,8.5,8,11.9c6.8,6.8,16.2,11,26.6,11c10.4,0,19.8-4.2,26.6-11
		c6.8-6.8,11-16.2,11-26.6s-4.2-19.8-11-26.6C100.2,46.7,96,43.9,91.4,42L91.4,42z M77.1,31L77.1,31L77.1,31L77.1,31h0.2l0,0h0.1h0
		h0h0.1h0h0h0h0h0.1h0c0.9,0,1.8,0,2.8,0.1c-1.9-4.5-4.7-8.5-8-11.9c-6.8-6.8-16.2-11-26.6-11c-10.4,0-19.8,4.2-26.6,11
		c-6.8,6.8-11,16.2-11,26.6s4.2,19.8,11,26.6c3.5,3.5,7.7,6.3,12.3,8.2c-0.1-1-0.1-2.1-0.1-3.1v0v-0.1v0v-0.1v0v0v-0.1v0v0V77v0
		v-0.1v0v-0.1v0v0v-0.1c0-12.6,5.1-24.1,13.4-32.4C53,36.1,64.5,31,77.1,31L77.1,31z"/>
</g>
</svg>
