<?xml version="1.0" encoding="utf-8"?>
<!-- Generator: Adobe Illustrator 26.0.1, SVG Export Plug-In . SVG Version: 6.00 Build 0)  -->
<svg version="1.1" id="Layer_1" xmlns="http://www.w3.org/2000/svg" xmlns:xlink="http://www.w3.org/1999/xlink" x="0px" y="0px"
	 viewBox="0 0 48 48" style="enable-background:new 0 0 48 48;" xml:space="preserve">
<style type="text/css">
	.st0{fill:#2C496D;}
</style>
<path class="st0" d="M24,24c-2.2,0-4-0.7-5.4-2.1c-1.4-1.4-2.1-3.2-2.1-5.4s0.7-4,2.1-5.4C20,9.7,21.8,9,24,9s4,0.7,5.4,2.1
	c1.4,1.4,2.1,3.2,2.1,5.4s-0.7,4-2.1,5.4C28,23.2,26.2,24,24,24z M8,40v-4.7C8,34,8.3,32.9,8.9,32c0.6-0.9,1.4-1.6,2.4-2
	c2.2-1,4.4-1.8,6.4-2.2S21.9,27,24,27s4.1,0.3,6.1,0.8s4.2,1.3,6.4,2.2c1,0.5,1.9,1.1,2.5,2c0.6,0.9,1,2,1,3.2V40H8z"/>
</svg>
